<?xml version="1.0" encoding="windows-1252"?>
<!-- Generator: Adobe Illustrator 19.0.0, SVG Export Plug-In . SVG Version: 6.00 Build 0)  -->
<svg version="1.1" id="Capa_1" xmlns="http://www.w3.org/2000/svg" xmlns:xlink="http://www.w3.org/1999/xlink" x="0px" y="0px" viewBox="0 0 49.46 49.46" style="enable-background:new 0 0 49.46 49.46;" xml:space="preserve">
<g>
	<path d="M1,16.232h6.448c0.553,0,1-0.448,1-1s-0.447-1-1-1H1c-0.553,0-1,0.448-1,1S0.447,16.232,1,16.232z"/>
	<path d="M49.021,33.399l-10.847-7.346c-0.305-0.207-0.701-0.229-1.029-0.055c-0.327,0.173-0.531,0.513-0.531,0.883v6.346h-6.049   c-0.553,0-1,0.448-1,1c0,0.552,0.447,1,1,1h7.049c0.553,0,1-0.448,1-1v-5.461l8.063,5.461l-8.063,5.461v-0.078c0-0.552-0.447-1-1-1   s-1,0.448-1,1v1.963c0,0.37,0.204,0.71,0.531,0.883c0.147,0.078,0.309,0.117,0.469,0.117c0.196,0,0.393-0.058,0.561-0.172   l10.847-7.347c0.275-0.186,0.439-0.497,0.439-0.828C49.46,33.895,49.296,33.585,49.021,33.399z"/>
	<path d="M8.56,7.841c-0.314-0.455-0.938-0.57-1.392-0.254C6.714,7.9,6.6,8.523,6.913,8.977L17.79,24.73l-5.866,8.497H1   c-0.553,0-1,0.448-1,1c0,0.552,0.447,1,1,1h11.448c0.328,0,0.636-0.162,0.823-0.432l5.734-8.305l10.446,15.129   c0.194,0.281,0.507,0.432,0.824,0.432c0.196,0,0.394-0.057,0.567-0.177c0.454-0.313,0.568-0.937,0.255-1.391L8.56,7.841z"/>
	<path d="M23.361,20.184l2.728-3.951h11.524c0.553,0,1-0.448,1-1V9.771l8.063,5.461l-8.063,5.461v-0.078c0-0.552-0.447-1-1-1   s-1,0.448-1,1v1.963c0,0.37,0.204,0.71,0.531,0.883c0.147,0.078,0.309,0.117,0.469,0.117c0.196,0,0.393-0.058,0.561-0.172   l10.847-7.347c0.275-0.186,0.439-0.497,0.439-0.828s-0.164-0.642-0.439-0.828L38.174,7.058c-0.305-0.207-0.701-0.228-1.029-0.055   c-0.327,0.173-0.531,0.513-0.531,0.883v6.346H25.565c-0.328,0-0.636,0.162-0.823,0.432l-3.026,4.383   c-0.313,0.454-0.199,1.078,0.255,1.391C22.424,20.752,23.046,20.638,23.361,20.184z"/>
</g>
<g>
</g>
<g>
</g>
<g>
</g>
<g>
</g>
<g>
</g>
<g>
</g>
<g>
</g>
<g>
</g>
<g>
</g>
<g>
</g>
<g>
</g>
<g>
</g>
<g>
</g>
<g>
</g>
<g>
</g>
</svg>